PathFileType	4	(X/Y/Z)	./resultDataOpenSim/trcMotMarkerGrf/sub06/qtm-14-01.trc
DataRate	CameraRate	NumFrames	NumMarkers	Units	OrigDataRate	OrigDataStartFrame	OrigNumFrames
250.000000	250.000000	12	24	m	250.000000	274	547
Frame#	Time	L.Toe.Tip			R.Toe.Tip			L.Ankle.Lat			R.Ankle.Lat			L.Ankle.Med			R.Ankle.Med			L.Heel			R.Heel			L.Knee.Lat			R.Knee.Lat			L.Knee.Med			R.Knee.Med			L.Thigh.Upper			R.Thigh.Upper			L.ASIS			R.ASIS			V.Sacral			L.Acromium			R.Acromium			C7			L.Elbow			R.Elbow			L.Wrist.Lat			R.Wrist.Lat
		X1	Y1	Z1	X2	Y2	Z2	X3	Y3	Z3	X4	Y4	Z4	X5	Y5	Z5	X6	Y6	Z6	X7	Y7	Z7	X8	Y8	Z8	X9	Y9	Z9	X10	Y10	Z10	X11	Y11	Z11	X12	Y12	Z12	X13	Y13	Z13	X14	Y14	Z14	X15	Y15	Z15	X16	Y16	Z16	X17	Y17	Z17	X18	Y18	Z18	X19	Y19	Z19	X20	Y20	Z20	X21	Y21	Z21	X22	Y22	Z22	X23	Y23	Z23	X24	Y24	Z24

274	1.092	0.11384231	-0.039019245	-0.05268243	0.94150107	0.036009893	0.031816621	0.081169087	0.073541797	-0.11089225	0.80343393	0.061681617	0.063183651	0.10071538	0.089584759	-0.029131024	0.81863782	0.083372989	-0.02378835	0.024005164	0.11693456	-0.064996131	0.74740063	0.038552858	0.0070487695	0.3557772	0.34283796	-0.1318283	0.80934297	0.45085005	0.093430849	0.35702289	0.34297426	-0.0080959684	0.75086415	0.42278452	-0.019149941	0.46272233	0.70689103	-0.16586722	0.58500801	0.73986377	0.16840279	0.55868999	0.75367443	-0.1484253	0.63754955	0.77769365	0.080225625	0.4210151	0.85009657	0.025934939	0.56494897	1.2550877	-0.17280489	0.56678673	1.2344429	0.18397556	0.48812315	1.2798859	0.0043420304	0.69353745	0.9544529	-0.24093387	0.38085668	0.98834377	0.2291206	0.92976768	0.98534388	-0.15631639	0.35502062	0.78052424	0.34154827
275	1.096	0.11565318	-0.037982681	-0.053145956	0.9419342	0.03581029	0.031415783	0.086740702	0.076337404	-0.11183566	0.8042895	0.061734707	0.062733443	0.10678076	0.092048751	-0.030215627	0.81958582	0.083614233	-0.024105414	0.030846885	0.12144046	-0.066192548	0.74768935	0.038696525	0.00696664	0.36593023	0.34087602	-0.13409194	0.81752854	0.4528952	0.091852199	0.36798459	0.33999075	-0.010443222	0.75908244	0.42669637	-0.022565078	0.47026001	0.70581302	-0.1655616	0.59241714	0.74077139	0.16862329	0.56581487	0.75287454	-0.14766398	0.64506453	0.77747517	0.080418898	0.42831896	0.84967033	0.026057723	0.57153294	1.2547628	-0.17245798	0.57464851	1.2335303	0.18441817	0.49513512	1.2799396	0.0053837719	0.69989775	0.95353137	-0.24014464	0.38934453	0.98704961	0.22946009	0.93588456	0.98518905	-0.15494044	0.36393445	0.77927986	0.34221113
276	1.1	0.11772174	-0.036745391	-0.053817722	0.942248	0.0356735	0.031017757	0.092639825	0.079433443	-0.11266686	0.8047906	0.061475638	0.062422171	0.11315422	0.094677351	-0.031147059	0.82039481	0.083464418	-0.024534156	0.038011187	0.12614598	-0.067102685	0.74789166	0.038780439	0.0068284576	0.37637402	0.33895724	-0.13642092	0.8245277	0.4538928	0.090956666	0.37923622	0.33696021	-0.012854241	0.7671309	0.43004906	-0.025474433	0.47769287	0.70489351	-0.16504372	0.59960162	0.74150978	0.16885943	0.57286368	0.75221074	-0.1468544	0.65254617	0.77745949	0.080781205	0.43539585	0.84923132	0.02566853	0.57818024	1.254537	-0.17220896	0.58244465	1.2327798	0.18482265	0.5022326	1.2801519	0.0062835416	0.70611666	0.95264074	-0.23934713	0.39794885	0.98577504	0.2297872	0.94185332	0.9849196	-0.15364341	0.37321696	0.77806773	0.34288374
277	1.104	0.11999725	-0.035260698	-0.05467587	0.94243559	0.035586028	0.030802098	0.098839872	0.082834235	-0.1133658	0.80498384	0.061356879	0.062255704	0.1198731	0.097473699	-0.031936763	0.8210642	0.083054392	-0.024937033	0.045540484	0.13106009	-0.067722089	0.74802944	0.038834292	0.0067213695	0.38706253	0.33711468	-0.13876174	0.8306079	0.45388006	0.090706864	0.39079125	0.33392887	-0.015363486	0.77487166	0.43284961	-0.027634082	0.48499616	0.70414386	-0.16428406	0.60653464	0.74213354	0.16911084	0.57983502	0.75168195	-0.14596048	0.65994945	0.7776518	0.081313021	0.44231446	0.84890138	0.025212213	0.58489047	1.2544126	-0.17205732	0.59016783	1.2322056	0.18518601	0.50938998	1.280512	0.0070222422	0.71219842	0.9518087	-0.23854334	0.40666391	0.98454722	0.23010237	0.94767365	0.98453349	-0.15241643	0.38271948	0.77687219	0.34353243
278	1.108	0.12247577	-0.033528359	-0.055660184	0.94252483	0.035523395	0.030746736	0.1053004	0.086541198	-0.1139045	0.80502524	0.06142209	0.062174954	0.12693776	0.10047346	-0.032585298	0.82151458	0.082519929	-0.025250899	0.053435295	0.13618098	-0.068097992	0.74809799	0.038857244	0.006661467	0.39795793	0.3353738	-0.14109206	0.83589387	0.45306334	0.090941683	0.40263107	0.33091363	-0.017942981	0.78226946	0.43508023	-0.028992711	0.4921597	0.70357339	-0.1632889	0.61323618	0.74272061	0.16940342	0.58673902	0.75128196	-0.14498903	0.66721663	0.77804573	0.081984898	0.44924619	0.84863364	0.025332274	0.59165386	1.2543923	-0.17199708	0.59781207	1.2318174	0.1855049	0.51655471	1.2810235	0.0076083854	0.71813823	0.95104979	-0.23773372	0.41541429	0.98340853	0.2303984	0.95334683	0.98402177	-0.1512544	0.3923382	0.77568084	0.34413103
279	1.112	0.12522222	-0.031611553	-0.056723329	0.94254716	0.035476252	0.030738482	0.11203036	0.090539044	-0.11430202	0.8050389	0.06146693	0.062102977	0.13433544	0.10372062	-0.033089818	0.8216922	0.081950368	-0.025486346	0.061669313	0.14149661	-0.068274373	0.74811231	0.038853179	0.0065940804	0.40902602	0.33376317	-0.14342373	0.84059207	0.4517331	0.091484739	0.41474534	0.32793892	-0.020555754	0.78933949	0.43666422	-0.029600448	0.49918978	0.70320008	-0.16212059	0.61975252	0.74332427	0.16977151	0.59360738	0.75101773	-0.14398771	0.67428322	0.77862696	0.08274128	0.45627013	0.84838728	0.026247524	0.59845033	1.2544817	-0.17201396	0.60537139	1.2316234	0.1857754	0.52368215	1.2816711	0.0080519588	0.72392499	0.95036868	-0.23692623	0.42409468	0.98239027	0.23066405	0.95886904	0.98337478	-0.15015643	0.40205678	0.77449805	0.34466776
280	1.116	0.1283879	-0.029498463	-0.057884935	0.94254256	0.035440204	0.030721401	0.11906427	0.094805788	-0.11461145	0.80508571	0.061353409	0.06200408	0.14205512	0.1072401	-0.033461025	0.82170281	0.081398347	-0.025678501	0.07020331	0.14698481	-0.068263215	0.74811283	0.038845679	0.0064790322	0.4202359	0.33231747	-0.14576558	0.84487453	0.45013089	0.092205234	0.42708795	0.3250819	-0.023170839	0.79610616	0.4375177	-0.029585994	0.50609774	0.70304273	-0.16087845	0.62613503	0.74395893	0.17023814	0.60048034	0.75091765	-0.14301487	0.68110401	0.77938379	0.083526116	0.46324392	0.84827968	0.027539662	0.60525009	1.2546885	-0.17208694	0.61284073	1.2316306	0.18599411	0.53073655	1.2824271	0.0083592661	0.72954607	0.94978044	-0.23613107	0.43268201	0.98148591	0.23089667	0.96423089	0.9825902	-0.14912331	0.41192093	0.77334633	0.34514076
281	1.12	0.13216726	-0.027055062	-0.059244578	0.94253611	0.035411936	0.030715436	0.12640774	0.099322312	-0.11486592	0.80518655	0.06112277	0.061897814	0.15008555	0.1110224	-0.033722979	0.82174956	0.080907872	-0.025842076	0.078997658	0.15261353	-0.068058579	0.74812585	0.038856289	0.0063450858	0.43157979	0.33105582	-0.14808099	0.84876623	0.44838911	0.092990504	0.43955497	0.32245111	-0.025739814	0.80257741	0.43762303	-0.029130398	0.5128916	0.70310153	-0.15965887	0.63242122	0.74461457	0.17080435	0.60738675	0.75101781	-0.1421194	0.68767971	0.78030837	0.084306826	0.46987641	0.8485026	0.028489071	0.61201641	1.2550205	-0.17219432	0.6202201	1.2318413	0.18615974	0.53768426	1.283266	0.0085427439	0.73498804	0.94932034	-0.23535687	0.44126654	0.98066062	0.23110246	0.96942862	0.98167373	-0.14815969	0.42205452	0.77226745	0.34556459
282	1.124	0.13667491	-0.024125429	-0.060920981	0.94252355	0.0353902	0.030754685	0.13405449	0.10407411	-0.1150615	0.80533694	0.060888084	0.061826994	0.15841022	0.11502957	-0.033888445	0.82193229	0.080521328	-0.025954078	0.088029285	0.15835084	-0.067658222	0.74814731	0.038888399	0.0062523266	0.44307863	0.32996808	-0.15030264	0.85227445	0.44655502	0.093763236	0.452081	0.32011455	-0.028204213	0.8087407	0.43705449	-0.028401211	0.51957256	0.70336098	-0.15853174	0.63862648	0.74527835	0.1714537	0.61431197	0.75134351	-0.1413238	0.69405502	0.78138729	0.085080565	0.47602058	0.84911993	0.028723957	0.61871403	1.2554832	-0.17231524	0.6275152	1.2322539	0.18627212	0.5444997	1.2841692	0.0086281668	0.74023955	0.94902201	-0.23461874	0.44995723	0.97988618	0.2312848	0.97446689	0.98063236	-0.1472758	0.43258612	0.77130045	0.34596248
283	1.128	0.14186766	-0.020608048	-0.062965825	0.94249515	0.035371794	0.030844923	0.14202054	0.10906367	-0.11518516	0.80550142	0.060701426	0.061822173	0.16701286	0.11921739	-0.033952598	0.82219615	0.080263688	-0.025985735	0.097300134	0.16418266	-0.067070879	0.74816292	0.038934083	0.0062288938	0.45475466	0.3290402	-0.15239155	0.85555251	0.44465026	0.094540003	0.46467679	0.31809354	-0.030521318	0.81457443	0.43594511	-0.027501108	0.52613444	0.70381212	-0.15753627	0.64475186	0.74594862	0.1721611	0.62116304	0.75190793	-0.1405986	0.70028205	0.78259255	0.085859403	0.48180015	0.85001964	0.028430463	0.62531535	1.2560812	-0.17242821	0.63473052	1.2328644	0.18633039	0.55117667	1.2851255	0.0086492144	0.74529207	0.94889468	-0.23393322	0.45877914	0.97917558	0.23144447	0.979351	0.97947005	-0.14648226	0.44348779	0.77044751	0.34633449
284	1.132	0.14761714	-0.016455452	-0.065331307	0.94245412	0.03535135	0.030967322	0.15032878	0.11431145	-0.11523975	0.8056148	0.060537547	0.061893653	0.17588686	0.1235573	-0.033923796	0.82245465	0.08012679	-0.025939902	0.10682568	0.17011542	-0.066312592	0.74816841	0.038986987	0.0062598415	0.46660719	0.32827616	-0.1543569	0.85883445	0.44271666	0.095389329	0.4773487	0.31642064	-0.032672549	0.82007056	0.43444189	-0.026490004	0.53257752	0.70445588	-0.15667537	0.65079622	0.74663925	0.17289586	0.62776022	0.75271991	-0.13985505	0.70639125	0.78388773	0.08665457	0.48741738	0.85107754	0.027914623	0.63179988	1.2568225	-0.1725161	0.64186467	1.2336679	0.18633376	0.55772746	1.2861299	0.0086360783	0.7501348	0.94892801	-0.23330612	0.46766423	0.97858158	0.23159143	0.98408129	0.97819191	-0.14578429	0.45459091	0.76968088	0.34665046
285	1.136	0.15383854	-0.011663754	-0.067916221	0.94241041	0.035325363	0.031100577	0.1589805	0.11982376	-0.1152417	0.80561984	0.060366687	0.062036824	0.18503086	0.12804311	-0.033838261	0.82267766	0.080074162	-0.025844435	0.11661163	0.17615785	-0.065408405	0.74816894	0.039046036	0.006317341	0.47860632	0.32768775	-0.15622586	0.86222896	0.44081773	0.096329983	0.49005796	0.31515649	-0.034654892	0.82523365	0.43267861	-0.025439075	0.5389244	0.70528462	-0.15593051	0.65676656	0.74737509	0.17362598	0.63388457	0.75378311	-0.13898426	0.71239645	0.78524659	0.08746793	0.49302397	0.85226403	0.027344354	0.63815626	1.2577157	-0.17257238	0.64891279	1.2346577	0.18628384	0.56415394	1.2871881	0.0086133779	0.75475466	0.94910991	-0.23273693	0.47652587	0.97814912	0.23174868	0.98865104	0.97680772	-0.14518255	0.46580161	0.76898865	0.34688849
